<svg width="36" height="36" viewBox="0 0 36 36" fill="none" xmlns="http://www.w3.org/2000/svg">
<rect x="0.5" y="0.5" width="35" height="35" rx="11.5" fill="white"/>
<rect x="0.5" y="0.5" width="35" height="35" rx="11.5" stroke="#E7E7E7"/>
<path fill-rule="evenodd" clip-rule="evenodd" d="M14.875 11.125L24.25 11.125C24.4158 11.125 24.5747 11.1908 24.6919 11.3081C24.8092 11.4253 24.875 11.5842 24.875 11.75V21.125C24.875 21.4702 24.5952 21.75 24.25 21.75C23.9048 21.75 23.625 21.4702 23.625 21.125V13.2589L12.1919 24.6919C11.9479 24.936 11.5521 24.936 11.3081 24.6919C11.064 24.4479 11.064 24.0521 11.3081 23.8081L22.7411 12.375L14.875 12.375C14.5298 12.375 14.25 12.0952 14.25 11.75C14.25 11.4048 14.5298 11.125 14.875 11.125Z" fill="#121212"/>
</svg>
