<svg width="48" height="48" viewBox="0 0 48 48" fill="none" xmlns="http://www.w3.org/2000/svg">
<rect x="0.5" y="0.5" width="47" height="47" rx="11.5" stroke="#E7E7E7"/>
<path d="M26.8559 29.0817C28.7504 28.857 30.5773 28.4116 32.3102 27.7719C30.8734 26.177 29.9988 24.0656 29.9988 21.75V21.0492C29.999 21.0328 29.999 21.0164 29.999 21C29.999 17.6863 27.3127 15 23.999 15C20.6853 15 17.999 17.6863 17.999 21L17.9988 21.75C17.9988 24.0656 17.1243 26.177 15.6875 27.7719C17.4204 28.4116 19.2475 28.857 21.1422 29.0818M26.8559 29.0817C25.919 29.1928 24.9656 29.25 23.9988 29.25C23.0322 29.25 22.0789 29.1929 21.1422 29.0818M26.8559 29.0817C26.9488 29.3711 26.999 29.6797 26.999 30C26.999 31.6569 25.6559 33 23.999 33C22.3422 33 20.999 31.6569 20.999 30C20.999 29.6797 21.0492 29.3712 21.1422 29.0818" stroke="#121212" stroke-width="1.5" stroke-linecap="round" stroke-linejoin="round"/>
</svg>
