<svg width="24" height="24" viewBox="0 0 24 24" fill="none" xmlns="http://www.w3.org/2000/svg">
<path d="M12.0004 11.9918C11.5862 11.9918 11.2504 12.3276 11.2504 12.7418V12.7474C11.2504 13.1616 11.5862 13.4974 12.0004 13.4974H12.006C12.4202 13.4974 12.756 13.1616 12.756 12.7474V12.7418C12.756 12.3276 12.4202 11.9918 12.006 11.9918H12.0004Z" fill="#121212"/>
<path d="M11.9997 16.4919C11.5854 16.4919 11.2496 16.8276 11.2496 17.2418V17.2475C11.2496 17.6617 11.5854 17.9974 11.9997 17.9974H12.0053C12.4195 17.9974 12.7553 17.6617 12.7553 17.2475V17.2418C12.7553 16.8276 12.4195 16.4919 12.0053 16.4919H11.9997Z" fill="#121212"/>
<path d="M8.99886 17.2426C8.99886 16.8284 9.33466 16.4926 9.74889 16.4926H9.75451C10.1687 16.4926 10.5045 16.8284 10.5045 17.2426V17.2482C10.5045 17.6624 10.1687 17.9982 9.75451 17.9982H9.74889C9.33466 17.9982 8.99886 17.6624 8.99886 17.2482V17.2426Z" fill="#121212"/>
<path d="M7.49886 16.4919C7.08462 16.4919 6.74882 16.8276 6.74882 17.2418V17.2475C6.74882 17.6617 7.08462 17.9974 7.49886 17.9974H7.50448C7.91871 17.9974 8.25451 17.6617 8.25451 17.2475V17.2418C8.25451 16.8276 7.91871 16.4919 7.50448 16.4919H7.49886Z" fill="#121212"/>
<path d="M13.4989 14.9953C13.4989 14.5811 13.8347 14.2453 14.249 14.2453H14.2546C14.6688 14.2453 15.0046 14.5811 15.0046 14.9953V15.0009C15.0046 15.4151 14.6688 15.7509 14.2546 15.7509H14.249C13.8347 15.7509 13.4989 15.4151 13.4989 15.0009V14.9953Z" fill="#121212"/>
<path d="M14.2497 16.4926C13.8355 16.4926 13.4997 16.8284 13.4997 17.2426V17.2482C13.4997 17.6624 13.8355 17.9982 14.2497 17.9982H14.2553C14.6695 17.9982 15.0053 17.6624 15.0053 17.2482V17.2426C15.0053 16.8284 14.6695 16.4926 14.2553 16.4926H14.2497Z" fill="#121212"/>
<path d="M15.7497 14.9938C15.7497 14.5796 16.0855 14.2439 16.4997 14.2439H16.5053C16.9196 14.2439 17.2554 14.5796 17.2554 14.9938V14.9995C17.2554 15.4137 16.9196 15.7494 16.5053 15.7494H16.4997C16.0855 15.7494 15.7497 15.4137 15.7497 14.9995V14.9938Z" fill="#121212"/>
<path d="M13.4981 12.7418C13.4981 12.3276 13.8339 11.9918 14.2481 11.9918H16.4981C16.9124 11.9918 17.2482 12.3276 17.2482 12.7418C17.2482 13.156 16.9124 13.4918 16.4981 13.4918H14.2481C13.8339 13.4918 13.4981 13.156 13.4981 12.7418Z" fill="#121212"/>
<path d="M6.74811 14.9918C6.74811 14.5776 7.08391 14.2418 7.49815 14.2418H11.9981C12.4124 14.2418 12.7482 14.5776 12.7482 14.9918C12.7482 15.406 12.4124 15.7418 11.9981 15.7418H7.49815C7.08391 15.7418 6.74811 15.406 6.74811 14.9918Z" fill="#121212"/>
<path fill-rule="evenodd" clip-rule="evenodd" d="M18 2.99289C18 2.57869 17.6642 2.24292 17.2499 2.24292C16.8357 2.24292 16.4999 2.57869 16.4999 2.99289V4.49166H7.49963V2.99423C7.49963 2.58003 7.16383 2.24426 6.7496 2.24426C6.33537 2.24426 5.99957 2.58003 5.99957 2.99423V4.49166H5.24818C3.59125 4.49166 2.24805 5.83475 2.24805 7.49153V18.7417C2.24805 20.3985 3.59125 21.7416 5.24818 21.7416H18.748C20.4049 21.7416 21.7481 20.3985 21.7481 18.7417V7.49153C21.7481 5.83475 20.4049 4.49166 18.748 4.49166H18V2.99289ZM3.74811 18.7417V11.242C3.74811 10.4136 4.41971 9.74208 5.24818 9.74208H18.748C19.5764 9.74208 20.248 10.4136 20.248 11.242V18.7417C20.248 19.5701 19.5764 20.2417 18.748 20.2417H5.24818C4.41972 20.2417 3.74811 19.5701 3.74811 18.7417Z" fill="#121212"/>
</svg>
