<svg width="44" height="44" viewBox="0 0 44 44" fill="none" xmlns="http://www.w3.org/2000/svg">
<rect width="44" height="44" rx="22" fill="#F46425"/>
<path d="M19.5936 13.9401C19.684 13.3976 20.1533 13 20.7033 13H23.2972C23.8472 13 24.3165 13.3976 24.4069 13.9401L24.6204 15.2211C24.6828 15.5951 24.9327 15.9067 25.2645 16.0904C25.3387 16.1314 25.412 16.1738 25.4844 16.2176C25.8095 16.4138 26.2048 16.4749 26.5604 16.3417L27.7772 15.8858C28.2922 15.6928 28.8712 15.9005 29.1462 16.3768L30.4432 18.6232C30.7181 19.0995 30.6085 19.7047 30.1839 20.0543L29.1795 20.8811C28.887 21.1219 28.742 21.4937 28.7491 21.8725C28.7498 21.9149 28.7502 21.9574 28.7502 22C28.7502 22.0426 28.7498 22.0851 28.7491 22.1275C28.742 22.5063 28.887 22.8781 29.1795 23.1189L30.1839 23.9457C30.6085 24.2953 30.7181 24.9005 30.4432 25.3768L29.1462 27.6232C28.8712 28.0995 28.2922 28.3071 27.7772 28.1142L26.5604 27.6583C26.2048 27.5251 25.8095 27.5862 25.4844 27.7824C25.412 27.8262 25.3387 27.8686 25.2645 27.9096C24.9327 28.0933 24.6828 28.4049 24.6204 28.7789L24.4069 30.0599C24.3165 30.6024 23.8472 31 23.2972 31H20.7033C20.1533 31 19.684 30.6024 19.5936 30.0599L19.38 28.7789C19.3177 28.4049 19.0677 28.0933 18.736 27.9096C18.6618 27.8686 18.5885 27.8262 18.516 27.7824C18.191 27.5862 17.7957 27.5251 17.4401 27.6583L16.2232 28.1142C15.7083 28.3072 15.1293 28.0995 14.8543 27.6232L13.5573 25.3768C13.2823 24.9005 13.392 24.2953 13.8166 23.9457L14.8209 23.1189C15.1134 22.8781 15.2584 22.5063 15.2514 22.1275C15.2506 22.0851 15.2502 22.0426 15.2502 22C15.2502 21.9574 15.2506 21.9149 15.2514 21.8725C15.2584 21.4937 15.1134 21.1219 14.8209 20.8811L13.8166 20.0543C13.392 19.7047 13.2823 19.0995 13.5573 18.6232L14.8543 16.3768C15.1293 15.9005 15.7083 15.6929 16.2232 15.8858L17.4401 16.3417C17.7957 16.4749 18.191 16.4138 18.516 16.2176C18.5885 16.1738 18.6618 16.1314 18.736 16.0904C19.0677 15.9067 19.3177 15.5951 19.38 15.2211L19.5936 13.9401Z" stroke="white" stroke-width="1.5" stroke-linecap="round" stroke-linejoin="round"/>
<path d="M25 21.9999C25 23.6568 23.6569 24.9999 22 24.9999C20.3431 24.9999 19 23.6568 19 21.9999C19 20.3431 20.3431 18.9999 22 18.9999C23.6569 18.9999 25 20.3431 25 21.9999Z" stroke="white" stroke-width="1.5" stroke-linecap="round" stroke-linejoin="round"/>
</svg>
