<svg width="44" height="44" viewBox="0 0 44 44" fill="none" xmlns="http://www.w3.org/2000/svg">
<rect width="44" height="44" rx="22" fill="#F7F7F7"/>
<path fill-rule="evenodd" clip-rule="evenodd" d="M19.188 25L21.1 27.55C21.55 28.15 22.45 28.15 22.9 27.55L24.812 25H28C29.657 25 31 23.657 31 22V16C31 14.343 29.657 13 28 13H16C14.343 13 13 14.343 13 16V22C13 23.657 14.343 25 16 25H19.188Z" stroke="#121212" stroke-width="1.5" stroke-linecap="round" stroke-linejoin="round"/>
<path d="M17 31H27" stroke="#121212" stroke-width="1.5" stroke-linecap="round" stroke-linejoin="round"/>
<path d="M22.177 19.3231C22.275 19.4211 22.275 19.5791 22.177 19.6771C22.079 19.7751 21.921 19.7751 21.823 19.6771C21.725 19.5791 21.725 19.4211 21.823 19.3231C21.921 19.2251 22.079 19.2261 22.177 19.3231" stroke="#121212" stroke-width="1.5" stroke-linecap="round" stroke-linejoin="round"/>
<path d="M26.177 19.3231C26.275 19.4211 26.275 19.5791 26.177 19.6771C26.079 19.7751 25.921 19.7751 25.823 19.6771C25.725 19.5791 25.725 19.4211 25.823 19.3231C25.921 19.2251 26.079 19.2261 26.177 19.3231" stroke="#121212" stroke-width="1.5" stroke-linecap="round" stroke-linejoin="round"/>
<path d="M18.177 19.3231C18.275 19.4211 18.275 19.5791 18.177 19.6771C18.079 19.7751 17.921 19.7751 17.823 19.6771C17.725 19.5791 17.725 19.4211 17.823 19.3231C17.921 19.2251 18.079 19.2261 18.177 19.3231" stroke="#121212" stroke-width="1.5" stroke-linecap="round" stroke-linejoin="round"/>
</svg>
