<svg width="40" height="40" viewBox="0 0 40 40" fill="none" xmlns="http://www.w3.org/2000/svg">
<rect x="0.5" y="0.5" width="39" height="39" rx="19.5" fill="white"/>
<rect x="0.5" y="0.5" width="39" height="39" rx="19.5" stroke="#E7E7E7"/>
<path d="M29 20C29 18.7574 27.9926 17.75 26.75 17.75H23C23 19.4069 21.6569 20.75 20 20.75C18.3431 20.75 17 19.4069 17 17.75H13.25C12.0074 17.75 11 18.7574 11 20M29 20V26C29 27.2426 27.9926 28.25 26.75 28.25H13.25C12.0074 28.25 11 27.2426 11 26V20M29 20V17M11 20V17M29 17C29 15.7574 27.9926 14.75 26.75 14.75H13.25C12.0074 14.75 11 15.7574 11 17M29 17V14C29 12.7574 27.9926 11.75 26.75 11.75H13.25C12.0074 11.75 11 12.7574 11 14V17" stroke="#121212" stroke-width="1.5" stroke-linecap="round" stroke-linejoin="round"/>
</svg>
