<svg width="44" height="44" viewBox="0 0 44 44" fill="none" xmlns="http://www.w3.org/2000/svg">
<rect width="44" height="44" rx="22" fill="#F7F7F7"/>
<path d="M21.125 22.0049H25.301" stroke="#121212" stroke-width="1.5" stroke-linecap="round" stroke-linejoin="round"/>
<path d="M21.125 25.9951L27.125 26.0001" stroke="#121212" stroke-width="1.5" stroke-linecap="round" stroke-linejoin="round"/>
<rect x="13" y="13" width="18" height="18" rx="2" stroke="#121212" stroke-width="1.5" stroke-linecap="round" stroke-linejoin="round"/>
<path d="M21.125 17.9949H27.125" stroke="#121212" stroke-width="1.5" stroke-linecap="round" stroke-linejoin="round"/>
<path d="M17.1242 17.7501C16.9862 17.7507 16.8747 17.8629 16.8751 18.0009C16.8755 18.1389 16.9875 18.2505 17.1255 18.2503C17.2635 18.2501 17.3753 18.1382 17.3753 18.0002C17.3756 17.9336 17.3492 17.8697 17.302 17.8227C17.2548 17.7757 17.1908 17.7496 17.1242 17.7501" stroke="#121212" stroke-width="1.5" stroke-linecap="round" stroke-linejoin="round"/>
<path d="M17.1242 21.7501C16.9862 21.7507 16.8747 21.8629 16.8751 22.0009C16.8755 22.1389 16.9875 22.2505 17.1255 22.2503C17.2635 22.2501 17.3753 22.1382 17.3753 22.0002C17.3756 21.9336 17.3492 21.8697 17.302 21.8227C17.2548 21.7757 17.1908 21.7496 17.1242 21.7501" stroke="#121212" stroke-width="1.5" stroke-linecap="round" stroke-linejoin="round"/>
<path d="M17.1242 25.7501C16.9862 25.7507 16.8747 25.8629 16.8751 26.0009C16.8755 26.1389 16.9875 26.2505 17.1255 26.2503C17.2635 26.2501 17.3753 26.1382 17.3753 26.0002C17.3756 25.9336 17.3492 25.8697 17.302 25.8227C17.2548 25.7757 17.1908 25.7496 17.1242 25.7501" stroke="#121212" stroke-width="1.5" stroke-linecap="round" stroke-linejoin="round"/>
</svg>
