<svg width="44" height="44" viewBox="0 0 44 44" fill="none" xmlns="http://www.w3.org/2000/svg">
<rect width="44" height="44" rx="22" fill="#F7F7F7"/>
<path fill-rule="evenodd" clip-rule="evenodd" d="M13.9965 13.9968H24.0007C24.5532 13.9968 25.0011 14.4447 25.0011 14.9972V30.0035H13.9965C13.444 30.0035 12.9961 29.5556 12.9961 29.0031V14.9972C12.9961 14.4447 13.444 13.9968 13.9965 13.9968Z" stroke="#121212" stroke-width="1.5" stroke-linecap="round" stroke-linejoin="round"/>
<path fill-rule="evenodd" clip-rule="evenodd" d="M25 17.9985H30.0021C30.5546 17.9985 31.0025 18.4464 31.0025 18.999V29.0031C31.0025 29.5556 30.5546 30.0035 30.0021 30.0035H25V17.9985Z" stroke="#121212" stroke-width="1.5" stroke-linecap="round" stroke-linejoin="round"/>
<path d="M16.9963 17.8734C16.9272 17.8734 16.8713 17.9294 16.8713 17.9985C16.8713 18.0676 16.9272 18.1236 16.9963 18.1236C17.0654 18.1236 17.1214 18.0676 17.1214 17.9985C17.1214 17.9294 17.0654 17.8734 16.9963 17.8734" stroke="#121212" stroke-width="1.5" stroke-linecap="round" stroke-linejoin="round"/>
<path d="M20.9983 17.8734C20.9292 17.8734 20.8732 17.9294 20.8732 17.9985C20.8732 18.0676 20.9292 18.1236 20.9983 18.1236C21.0673 18.1236 21.1233 18.0676 21.1233 17.9985C21.1233 17.9294 21.0673 17.8734 20.9983 17.8734" stroke="#121212" stroke-width="1.5" stroke-linecap="round" stroke-linejoin="round"/>
<path d="M16.9963 21.8752C16.9272 21.8752 16.8713 21.9311 16.8713 22.0002C16.8713 22.0693 16.9272 22.1253 16.9963 22.1253C17.0654 22.1253 17.1214 22.0693 17.1214 22.0002C17.1214 21.9311 17.0654 21.8752 16.9963 21.8752" stroke="#121212" stroke-width="1.5" stroke-linecap="round" stroke-linejoin="round"/>
<path d="M20.9983 21.8752C20.9292 21.8752 20.8732 21.9311 20.8732 22.0002C20.8732 22.0693 20.9292 22.1253 20.9983 22.1253C21.0673 22.1253 21.1233 22.0693 21.1233 22.0002C21.1233 21.9311 21.0673 21.8752 20.9983 21.8752" stroke="#121212" stroke-width="1.5" stroke-linecap="round" stroke-linejoin="round"/>
<path d="M16.9963 25.8766C16.9272 25.8766 16.8713 25.9326 16.8713 26.0017C16.8713 26.0707 16.9272 26.1267 16.9963 26.1267C17.0654 26.1267 17.1214 26.0707 17.1214 26.0017C17.1214 25.9326 17.0654 25.8766 16.9963 25.8766" stroke="#121212" stroke-width="1.5" stroke-linecap="round" stroke-linejoin="round"/>
<path d="M20.9983 25.8766C20.9292 25.8766 20.8732 25.9326 20.8732 26.0017C20.8732 26.0707 20.9292 26.1267 20.9983 26.1267C21.0673 26.1267 21.1233 26.0707 21.1233 26.0017C21.1233 25.9326 21.0673 25.8766 20.9983 25.8766" stroke="#121212" stroke-width="1.5" stroke-linecap="round" stroke-linejoin="round"/>
<path d="M28.0022 21.8752C27.9331 21.8752 27.8771 21.9311 27.8771 22.0002C27.8771 22.0693 27.9331 22.1253 28.0022 22.1253C28.0712 22.1253 28.1272 22.0693 28.1272 22.0002C28.1272 21.9311 28.0712 21.8752 28.0022 21.8752" stroke="#121212" stroke-width="1.5" stroke-linecap="round" stroke-linejoin="round"/>
<path d="M28.0022 25.8766C27.9331 25.8766 27.8771 25.9326 27.8771 26.0017C27.8771 26.0707 27.9331 26.1267 28.0022 26.1267C28.0712 26.1267 28.1272 26.0707 28.1272 26.0017C28.1272 25.9326 28.0712 25.8766 28.0022 25.8766" stroke="#121212" stroke-width="1.5" stroke-linecap="round" stroke-linejoin="round"/>
</svg>
