<svg width="44" height="44" viewBox="0 0 44 44" fill="none" xmlns="http://www.w3.org/2000/svg">
<rect width="44" height="44" rx="22" fill="#F46425"/>
<path fill-rule="evenodd" clip-rule="evenodd" d="M19.188 25L21.1 27.55C21.55 28.15 22.45 28.15 22.9 27.55L24.812 25H28C29.657 25 31 23.657 31 22V16C31 14.343 29.657 13 28 13H16C14.343 13 13 14.343 13 16V22C13 23.657 14.343 25 16 25H19.188Z" stroke="white" stroke-width="1.5" stroke-linecap="round" stroke-linejoin="round"/>
<path d="M17 31H27" stroke="white" stroke-width="1.5" stroke-linecap="round" stroke-linejoin="round"/>
<path d="M22.177 19.3228C22.275 19.4208 22.275 19.5788 22.177 19.6768C22.079 19.7748 21.921 19.7748 21.823 19.6768C21.725 19.5788 21.725 19.4208 21.823 19.3228C21.921 19.2248 22.079 19.2258 22.177 19.3228" stroke="white" stroke-width="1.5" stroke-linecap="round" stroke-linejoin="round"/>
<path d="M26.177 19.3228C26.275 19.4208 26.275 19.5788 26.177 19.6768C26.079 19.7748 25.921 19.7748 25.823 19.6768C25.725 19.5788 25.725 19.4208 25.823 19.3228C25.921 19.2248 26.079 19.2258 26.177 19.3228" stroke="white" stroke-width="1.5" stroke-linecap="round" stroke-linejoin="round"/>
<path d="M18.177 19.3228C18.275 19.4208 18.275 19.5788 18.177 19.6768C18.079 19.7748 17.921 19.7748 17.823 19.6768C17.725 19.5788 17.725 19.4208 17.823 19.3228C17.921 19.2248 18.079 19.2258 18.177 19.3228" stroke="white" stroke-width="1.5" stroke-linecap="round" stroke-linejoin="round"/>
</svg>
