
<svg width="44" height="44" viewBox="0 0 44 44" fill="none" xmlns="http://www.w3.org/2000/svg">
<rect width="44" height="44" rx="22" fill="#F46425"/>
<path d="M24.0668 21.8371C24.3336 21.566 24.7662 21.566 25.033 21.8371L29.5883 26.4642C30.6095 27.5016 30.6095 29.1847 29.5883 30.222C28.5671 31.2593 26.9101 31.2593 25.8889 30.222L21.3336 25.5948C21.0668 25.3238 21.0668 24.8844 21.3336 24.6134C21.6005 24.3423 22.033 24.3423 22.2999 24.6134L26.8551 29.2405C27.3427 29.7358 28.1346 29.7358 28.6221 29.2405C29.1096 28.7453 29.1096 27.9409 28.6221 27.4457L24.0668 22.8185C23.8 22.5475 23.8 22.1081 24.0668 21.8371Z" fill="white"/>
<path d="M22.7003 14.4339C24.0169 13.0964 25.8882 12.7085 27.5411 13.212L27.5492 13.2138C27.6655 13.2508 27.7935 13.3201 27.905 13.4343L27.9059 13.4334L28.0536 13.5835C28.391 13.9266 28.391 14.483 28.0536 14.8261L26.1354 16.7746L27.2822 17.9404L29.2013 15.9919C29.5392 15.6487 30.0877 15.6488 30.4256 15.9919L30.4273 15.9937L30.575 16.1447L30.5733 16.1456C30.6742 16.2477 30.7488 16.3737 30.7895 16.5125H30.7912C31.287 18.1916 30.9051 20.0932 29.5884 21.4307C28.3657 22.6725 26.6657 23.0922 25.106 22.7438L17.7775 30.1889C16.8539 31.1271 15.3654 31.2693 14.3166 30.4627L14.1137 30.2892C13.0239 29.2585 13.0025 27.5249 14.0452 26.4645L21.4057 18.986C21.0631 17.402 21.478 15.6756 22.7003 14.4339ZM26.5269 14.4122C25.5026 14.2924 24.4461 14.6234 23.6665 15.4154C22.7178 16.3791 22.4402 17.7597 22.8177 18.9906C22.8933 19.2369 22.8282 19.5058 22.6487 19.6883L15.0114 27.446C14.5131 27.9533 14.5245 28.7809 15.0452 29.2734L15.1387 29.3538C15.6234 29.7252 16.3461 29.68 16.8113 29.2074L24.4156 21.4822C24.5952 21.2999 24.8601 21.2338 25.1025 21.3105C26.3142 21.6939 27.6734 21.4128 28.6221 20.4492C29.4024 19.6567 29.7267 18.5822 29.6079 17.541L27.7662 19.4126C27.4994 19.6837 27.0669 19.6837 26.8 19.4126L24.6861 17.2662C24.4193 16.9953 24.4195 16.5558 24.6861 16.2848L26.5269 14.4122ZM29.9629 16.761L29.6373 17.0891C29.6431 17.0913 29.6492 17.0925 29.6551 17.0945L29.9709 16.7592L29.9629 16.761ZM29.9629 16.761L29.9709 16.7592L30.0901 16.6336L29.9629 16.761Z" fill="white"/>
<path d="M16.5782 15.5913C16.5781 15.5163 16.5425 15.4478 16.4857 15.4052L16.4225 15.3717L14.7125 14.7924L14.3984 15.1114L14.9687 16.8484L15.0016 16.9135C15.0436 16.971 15.1109 17.0065 15.1849 17.0066H16.5782V15.5913ZM17.9448 17.7007C17.9448 18.084 17.6388 18.3947 17.2615 18.3947H15.1849C14.5415 18.3947 13.966 18.0029 13.7178 17.4079L13.6724 17.2868L13.0585 15.4151C12.9219 14.9987 13.0289 14.5407 13.3334 14.2312L13.8459 13.7106L13.966 13.604C14.2197 13.41 14.5427 13.3326 14.8557 13.3907L15.0114 13.4314L16.854 14.055L16.9741 14.1011C17.5598 14.3535 17.9447 14.9392 17.9448 15.5913V17.7007Z" fill="white"/>
<path d="M16.7829 17.2099C17.0497 16.9388 17.4823 16.9388 17.7491 17.2099L20.9378 20.4489C21.2047 20.72 21.2047 21.1593 20.9378 21.4304C20.671 21.7014 20.2384 21.7014 19.9716 21.4304L16.7829 18.1914C16.5161 17.9203 16.5161 17.481 16.7829 17.2099Z" fill="white"/>
</svg>
