
<svg width="44" height="44" viewBox="0 0 44 44" fill="none" xmlns="http://www.w3.org/2000/svg"> <rect width="44" height="44" rx="22" fill="#F46425"/> <circle cx="16.999" cy="15.2473" r="2.25094" stroke="white" stroke-width="1.5" stroke-linecap="round" stroke-linejoin="round"/> <path fill-rule="evenodd" clip-rule="evenodd" d="M14.9987 26.0018V30.0034C14.9987 30.5557 15.4469 31.0039 15.9991 31.0039H17.9999C18.5522 31.0039 19.0003 30.5557 19.0003 30.0034V26.0018L20.0558 25.2985C20.3339 25.1134 20.501 24.8003 20.501 24.4661V20.9997C20.501 20.4475 20.0528 19.9993 19.5005 19.9993H14.4985C13.9462 19.9993 13.498 20.4475 13.498 20.9997V24.4661C13.498 24.8003 13.6651 25.1134 13.9432 25.2985L14.9987 26.0018Z" stroke="white" stroke-width="1.5" stroke-linecap="round" stroke-linejoin="round"/> <path d="M25.0022 12.9963V18.4986" stroke="white" stroke-width="1.5" stroke-linecap="round" stroke-linejoin="round"/> <path d="M28.0041 12.9963V18.4986" stroke="white" stroke-width="1.5" stroke-linecap="round" stroke-linejoin="round"/> <path d="M31.0061 12.9963V18.4986" stroke="white" stroke-width="1.5" stroke-linecap="round" stroke-linejoin="round"/> </svg>


