<svg width="144" height="104" viewBox="0 0 144 104" fill="none" xmlns="http://www.w3.org/2000/svg">
<mask id="path-1-inside-1_4903_11290" fill="white">
<path d="M144 89.4635C131.831 96.4741 118.36 100.939 104.406 102.587C90.4528 104.235 76.3091 103.032 62.8367 99.0494C49.3643 95.0672 36.8453 88.3898 26.0423 79.424C15.2393 70.4583 6.37844 59.3918 -0.000581277 46.8988L92.2387 -0.000130022L144 89.4635Z"/>
</mask>
<path d="M144 89.4635C131.831 96.4741 118.36 100.939 104.406 102.587C90.4528 104.235 76.3091 103.032 62.8367 99.0494C49.3643 95.0672 36.8453 88.3898 26.0423 79.424C15.2393 70.4583 6.37844 59.3918 -0.000581277 46.8988L92.2387 -0.000130022L144 89.4635Z" fill="#FFF5ED" stroke="#FFD1B8" stroke-width="1.43121" mask="url(#path-1-inside-1_4903_11290)"/>
</svg>
