<svg width="89" height="77" viewBox="0 0 89 77" fill="none" xmlns="http://www.w3.org/2000/svg">
<path opacity="0.2" d="M62.3232 33.4733C58.6577 30.6319 55.099 27.6879 51.309 24.9714C46.3828 21.4446 40.3909 19.7515 34.1065 18.7518C33.2619 18.6165 32.3133 18.9331 31.2965 19.3959C44.6574 21.4971 53.0296 28.6099 59.7496 37.4522C59.5928 37.5961 59.4394 37.7451 59.2826 37.8889C58.398 36.9339 57.4836 35.9897 56.6265 35.0147C50.6594 28.2184 42.4703 24.4591 32.7161 22.6318C29.9407 22.1111 28.4984 23.9396 26.3045 24.3196C28.3147 24.3129 30.3778 24.0608 32.3267 24.3412C40.7068 25.5406 46.3627 30.0796 51.3593 35.357C51.9827 36.0142 52.52 36.7264 52.9642 37.5966C47.0586 32.3178 40.406 28.1633 31.9927 27.5057C36.2168 30.3753 40.8015 33.495 45.3876 36.6106C45.1747 36.8466 44.9631 37.0786 44.7501 37.3146C43.7315 36.7744 42.7115 36.2383 41.6955 35.69C37.8078 33.6013 33.9732 31.446 30.0197 29.4473C27.4571 28.1544 24.6073 27.7827 21.6104 28.4681C25.2389 29.5533 29.2251 30.1818 32.4007 31.8551C35.5715 33.5273 37.9338 36.2534 40.2695 38.8342C36.7345 37.0854 33.3465 35.0773 29.6286 33.6671C25.9155 32.258 21.9513 31.0895 17.5388 31.796C27.6463 33.8151 35.5197 38.2583 40.874 45.6988C33.7737 38.6027 24.5395 35.4264 13.6032 35.2239C24.5997 37.192 33.2835 41.6976 38.3243 50.3194C34.8667 46.4607 30.4885 43.4828 25.2213 41.5801C20.179 39.7624 15.1376 37.6004 9.15694 38.5077C29.0849 42.4255 39.0171 54.1131 44.2213 69.5494C44.506 69.4818 44.7844 69.4173 45.0691 69.3498C45.9366 67.4459 46.809 65.5431 47.6611 63.6706C47.8162 64.1017 48.039 64.7135 48.4683 65.8899C62.035 54.0969 75.2733 42.5883 88.5616 31.0385C89.6268 33.2891 88.6353 34.9911 86.8718 36.5608C78.9332 43.6412 71.0625 50.7717 63.0706 57.8054C57.6269 62.5982 51.994 67.2443 46.4873 71.9882C44.6721 73.5552 42.9951 75.2313 41.1433 76.9601C41.2551 73.2144 41.7453 69.8754 41.32 66.6206C40.9839 64.0657 39.9628 61.4022 38.4616 59.1507C34.2651 52.8611 28.6562 47.5915 20.4849 44.6557C14.9376 42.6603 9.10534 41.5955 3.02793 41.5659C2.19295 41.5635 1.36226 41.5315 0.000755817 41.4992C1.24041 40.3144 2.18936 39.3135 3.25103 38.403C16.3051 27.1716 29.495 16.0403 42.3902 4.68213C47.533 0.153778 53.4913 -0.684403 60.354 0.461176C69.0321 1.90986 74.876 6.64752 80.0329 12.161C81.3999 13.6242 82.6283 15.1744 83.7625 16.8212C76.9139 11.4026 70.441 5.55315 59.998 4.40976C64.2479 7.70352 68.2251 10.7841 72.2022 13.8647C72.0096 14.0704 71.8121 14.275 71.6195 14.4806C64.1635 10.226 56.6595 6.08721 47.0726 6.39376C52.2614 7.54665 57.2266 9.03346 61.4358 11.9651C65.4739 14.7759 69.3152 17.6912 71.5186 21.7551C62.0602 12.8797 47.3001 6.71457 42.1608 10.1583C54.2196 10.8238 61.5429 16.823 67.5976 24.3406C60.1684 17.433 51.2463 13.0793 39.7646 12.9867C44.719 14.2793 49.9269 15.0964 53.7791 18.3846C57.4547 21.5203 61.2366 24.5706 64.9697 27.658C64.7001 27.9555 64.4305 28.253 64.1622 28.5465C56.8365 21.7578 48.4126 16.7084 37.9781 16.1728C42.1459 18.1755 47.3608 20.0447 51.6022 22.9094C55.8619 25.7825 59.1494 29.6471 62.8621 33.0743C62.6909 33.1975 62.5232 33.3259 62.352 33.4491L62.3232 33.4733Z" fill="white"/>
</svg>
